<?xml version="1.0" encoding="UTF-8"?>
<svg version="1.1" xmlns="http://www.w3.org/2000/svg" width="80" height="80">
<path d="M0 0 C8.44838802 6.27407421 14.28048054 14.62264778 16.875 24.875 C18.66020669 37.96752947 16.38572466 48.81512583 8.6875 59.6875 C2.89326564 66.61292979 -5.05930196 72.47737155 -14.125 73.875 C-28.18593779 74.9953525 -38.1641083 73.76753508 -49.60546875 65.0625 C-53.09567442 62.03224391 -55.66559364 58.76625254 -58.125 54.875 C-58.99125 53.6065625 -58.99125 53.6065625 -59.875 52.3125 C-64.58547372 43.12707625 -64.7024798 31.22717314 -62.25 21.3515625 C-57.63905291 9.55117818 -50.13865578 1.80269898 -39.1171875 -4.22265625 C-26.74339723 -9.43905803 -10.9317591 -7.03222115 0 0 Z " fill="#020202" transform="translate(63.125,6.125)"/>
<path d="M0 0 C11 0 11 0 13.51806641 2.13964844 C14.04062012 3.1196582 14.56317383 4.09966797 15.1015625 5.109375 C15.98908203 6.70652344 15.98908203 6.70652344 16.89453125 8.3359375 C17.46558594 9.46257813 18.03664063 10.58921875 18.625 11.75 C19.23472656 12.86117188 19.84445313 13.97234375 20.47265625 15.1171875 C25.16575946 23.79263442 25.16575946 23.79263442 26 28 C29.10655481 25.12939673 31.15707179 22.30924603 33.19921875 18.61328125 C34.05290039 17.0828418 34.05290039 17.0828418 34.92382812 15.52148438 C35.50583984 14.46251953 36.08785156 13.40355469 36.6875 12.3125 C37.85679004 10.20371524 39.02729603 8.09560408 40.19921875 5.98828125 C40.97011841 4.58896362 40.97011841 4.58896362 41.7565918 3.16137695 C43 1 43 1 44 0 C47.63 0 51.26 0 55 0 C55 18.48 55 36.96 55 56 C51.37 56 47.74 56 44 56 C43.67 45.44 43.34 34.88 43 24 C41.659375 26.18625 40.31875 28.3725 38.9375 30.625 C38.51073975 31.30127441 38.08397949 31.97754883 37.64428711 32.67431641 C35.82904616 35.74365071 34.98989081 37.49327676 35.0625 41.1328125 C36.06017732 44.18404229 37.31718844 46.5598271 39.0625 49.25 C42 53.81176471 42 53.81176471 42 56 C40.06318839 56.08107583 38.1254066 56.13922475 36.1875 56.1875 C35.10855469 56.22230469 34.02960937 56.25710937 32.91796875 56.29296875 C30 56 30 56 28.11328125 54.48828125 C27.74589844 53.99714844 27.37851562 53.50601563 27 53 C26.34 53.99 25.68 54.98 25 56 C22.1796875 56.29296875 22.1796875 56.29296875 18.875 56.1875 C17.23144531 56.14689453 17.23144531 56.14689453 15.5546875 56.10546875 C14.71164063 56.07066406 13.86859375 56.03585938 13 56 C14.10582465 52.07934895 15.61747859 48.93411486 17.75 45.5 C19.73772329 42.02074472 19.73772329 42.02074472 19.6875 38.0625 C18.14848617 35.2694749 16.53894516 32.54040687 14.89453125 29.80859375 C14.3528833 28.90810303 13.81123535 28.0076123 13.25317383 27.07983398 C12.83962646 26.39348877 12.4260791 25.70714355 12 25 C11.97494385 25.90355225 11.9498877 26.80710449 11.92407227 27.73803711 C11.82912683 31.0796428 11.72988379 34.42106252 11.62768555 37.76245117 C11.5842837 39.2106424 11.54261256 40.65888654 11.50268555 42.10717773 C11.44510938 44.18489559 11.38137972 46.26234573 11.31640625 48.33984375 C11.26141968 50.21724243 11.26141968 50.21724243 11.20532227 52.13256836 C11 55 11 55 10 56 C6.7 56 3.4 56 0 56 C0 37.52 0 19.04 0 0 Z " fill="#F7F7F7" transform="translate(14,13)"/>
</svg>
